<?xml version="1.0" encoding="utf-8"?>
<!-- Generator: Adobe Illustrator 25.4.1, SVG Export Plug-In . SVG Version: 6.00 Build 0)  -->
<svg version="1.1" id="Ebene_1" xmlns="http://www.w3.org/2000/svg" xmlns:xlink="http://www.w3.org/1999/xlink" x="0px" y="0px"
	 viewBox="0 0 375 375" style="enable-background:new 0 0 375 375;" xml:space="preserve">
<style type="text/css">
	.st0{display:none;fill:#FFFFFF;}
	.st1{fill:#79B9DF;}
	.st2{fill:#FF914D;}
	.st3{clip-path:url(#SVGID_00000060008485115156784340000016760789391697914041_);}
	.st4{fill:#6E9D2B;}
	.st5{clip-path:url(#SVGID_00000160886209746759809450000003502820970199963832_);}
	.st6{fill:#46551E;}
	.st7{clip-path:url(#SVGID_00000070825894428982460070000011836228145807891128_);}
	.st8{clip-path:url(#SVGID_00000041255814780776685420000004496522594467361200_);}
	.st9{clip-path:url(#SVGID_00000137842284549682306660000009255534236353972374_);}
	.st10{fill:#151E15;}
	.st11{fill:#FFFFFF;}
	.st12{clip-path:url(#SVGID_00000049921605950532338270000018032660723595996040_);}
	.st13{clip-path:url(#SVGID_00000131335412667217985920000002903700237610419130_);}
	.st14{clip-path:url(#SVGID_00000106122628598428262550000009037235463007276199_);}
	.st15{fill:#FAB919;}
	.st16{clip-path:url(#SVGID_00000153666963037521075690000011357786427461379216_);}
	.st17{clip-path:url(#SVGID_00000111876900450432525280000002022118425816282558_);}
	.st18{clip-path:url(#SVGID_00000011753098941136083040000004871966762339362199_);}
	.st19{clip-path:url(#SVGID_00000022524186466691687680000010179451188563860657_);}
	.st20{clip-path:url(#SVGID_00000183960630995872672510000018324614104815065253_);}
	.st21{clip-path:url(#SVGID_00000056386115009562140530000011366420370736040111_);}
	.st22{clip-path:url(#SVGID_00000158718541728650992360000018382471071574773686_);}
	.st23{clip-path:url(#SVGID_00000016077713871406321680000001326309172196285834_);}
	.st24{clip-path:url(#SVGID_00000004536569148695218880000001618997748328983688_);}
	.st25{clip-path:url(#SVGID_00000146472347179895584320000018306102117901075353_);}
	.st26{clip-path:url(#SVGID_00000086658530269348855350000011883696054120432523_);}
	.st27{clip-path:url(#SVGID_00000103979309338395003800000015131000213007522690_);}
	.st28{clip-path:url(#SVGID_00000165936857063212802390000012574539863341089179_);}
	.st29{clip-path:url(#SVGID_00000173858490583977110450000003235522122087124909_);}
	.st30{clip-path:url(#SVGID_00000054960266591303311200000011871665863030033052_);}
	.st31{clip-path:url(#SVGID_00000177444824998447303220000006756794009718132116_);}
	.st32{clip-path:url(#SVGID_00000031186904051981140060000010324876471307568017_);}
	.st33{clip-path:url(#SVGID_00000006708166665295995980000002819683926013135261_);}
	.st34{clip-path:url(#SVGID_00000001664627233192799900000009163800150861146298_);}
	.st35{clip-path:url(#SVGID_00000110440818782001032560000003447908115034335386_);}
	.st36{clip-path:url(#SVGID_00000020400733866462593680000011559047077299535504_);}
	.st37{clip-path:url(#SVGID_00000114065788325599308860000014386617084409150620_);}
	.st38{clip-path:url(#SVGID_00000154387992086078539600000000493714239910660522_);}
	.st39{clip-path:url(#SVGID_00000044157923847404255450000007605480634086667433_);}
	.st40{clip-path:url(#SVGID_00000045580292957591817080000017604287764829979793_);}
	.st41{clip-path:url(#SVGID_00000065752998853196937940000007130913118677713802_);}
	.st42{clip-path:url(#SVGID_00000084509711977327568830000002483628291678617739_);}
	.st43{clip-path:url(#SVGID_00000007392393517603385980000017918214010745236616_);}
	.st44{clip-path:url(#SVGID_00000062890464283494442550000006732320403065285265_);}
	.st45{clip-path:url(#SVGID_00000026883942224216357430000012559104789177102517_);}
	.st46{clip-path:url(#SVGID_00000165213694393690671330000018409258977129369480_);}
	.st47{clip-path:url(#SVGID_00000059278910423344768330000007079695015903440287_);}
	.st48{clip-path:url(#SVGID_00000163754998522482325590000016647789305053428101_);}
	.st49{clip-path:url(#SVGID_00000121964262022217774280000007358814117865309093_);}
	.st50{clip-path:url(#SVGID_00000150103278130546554620000010191845341448736945_);}
	.st51{clip-path:url(#SVGID_00000038403596769748515370000003197975913599787956_);}
	.st52{clip-path:url(#SVGID_00000131339551330429751250000016018943681971762600_);}
	.st53{clip-path:url(#SVGID_00000098905089954543743140000012611625092491903386_);}
	.st54{clip-path:url(#SVGID_00000047017593842912707510000009009829215025250232_);}
	.st55{clip-path:url(#SVGID_00000106149500693846217560000018404324130486916998_);}
	.st56{clip-path:url(#SVGID_00000146475182250967882810000015668338159977453991_);}
	.st57{clip-path:url(#SVGID_00000138561380602909400650000003045147679801739403_);}
	.st58{clip-path:url(#SVGID_00000021838063743799644910000000845084026134267807_);}
	.st59{clip-path:url(#SVGID_00000056422076245446574090000014249813856269926556_);}
	.st60{clip-path:url(#SVGID_00000056418033988810935770000010112073749085950390_);}
	.st61{clip-path:url(#SVGID_00000065774613554649907860000008038255695135986565_);}
	.st62{clip-path:url(#SVGID_00000065759743156624126180000001648497435288051875_);}
	.st63{clip-path:url(#SVGID_00000008870214811350239440000017791871682508727688_);}
	.st64{clip-path:url(#SVGID_00000084520861571826264630000016789450616877161635_);}
	.st65{clip-path:url(#SVGID_00000051380047233753797160000008543610405024844429_);}
	.st66{clip-path:url(#SVGID_00000090283678687141608170000017333159231869520038_);}
	.st67{clip-path:url(#SVGID_00000105386042079854809130000009740921289439123104_);}
	.st68{clip-path:url(#SVGID_00000026135367510591325250000001569222274819884429_);}
	.st69{clip-path:url(#SVGID_00000177479152149733734020000007822070167579102879_);}
	.st70{clip-path:url(#SVGID_00000181045538588868866010000016422034509193531838_);}
	.st71{clip-path:url(#SVGID_00000157268299000973102640000000394694281252946053_);}
	.st72{clip-path:url(#SVGID_00000085944177246566334260000004498775270291008183_);}
	.st73{clip-path:url(#SVGID_00000067915794990916828280000017165955193869035174_);}
	.st74{clip-path:url(#SVGID_00000127742632990567986830000014412968902519309726_);}
	.st75{clip-path:url(#SVGID_00000019657657558373977930000006196560741446348931_);}
	.st76{clip-path:url(#SVGID_00000157292146227214060530000000858892858947956371_);}
	.st77{clip-path:url(#SVGID_00000183215012592814982090000011192102523862087823_);}
	.st78{clip-path:url(#SVGID_00000157287922798749027460000012221570765951216791_);}
</style>
<g id="surface1">
	<rect class="st0" width="375" height="375"/>
	<g>
		<g>
			<path class="st1" d="M344,138.8v-6c0-11.2-7.5-22.4-16.7-24.8L205.6,76.2c-9.2-2.4-24.2-2.4-33.4,0L50.5,108.1
				c-9.2,2.4-16.7,13.6-16.7,24.8v6h7.9v-1.2c0-10.5,7.4-21,16.6-23.3l114.6-28.8c4.3-1.1,9.9-1.7,16-1.7c0.7,0,1.4,0.8,2.1,2.3
				c-0.7,0-1.4,0-2.1,0c-5.9,0-11.4,0.6-15.5,1.6L58.8,116.5c-8.2,2-14.9,11.5-14.9,21.2v1.2H33.8v86.2c0,11.2,7.5,22.4,16.7,24.8
				l121.8,31.9c9.2,2.4,24.2,2.4,33.4,0l121.8-31.9c9.2-2.4,16.7-13.6,16.7-24.8V138.8h-10.1v-1.2c0-9.6-6.7-19.1-14.9-21.2
				l-3.7-0.9l4.2-1.3c9.2,2.3,16.6,12.7,16.6,23.3v1.2H344z"/>
		</g>
	</g>
	<path class="st2" d="M333.9,220.4c0,9.6-6.7,19.1-14.9,21.2l-114.7,28.7c-4.1,1.1-9.5,1.6-15.5,1.6c-5.9,0-11.3-0.6-15.5-1.6
		L58.8,241.5c-8.2-2-14.9-11.5-14.9-21.2v-81.5h-2.3v81.6c0,10.5,7.4,21,16.6,23.4L173,272.5c4.3,1.1,9.9,1.7,16,1.7
		s11.7-0.6,16-1.7l114.6-28.8c9.2-2.3,16.6-12.7,16.6-23.4v-81.6h-2.3V220.4z"/>
	<path class="st2" d="M319.5,114.2L204.9,85.5c-4.3-1.1-9.9-1.7-16-1.7c-6,0-11.7,0.6-16,1.7L58.3,114.2
		c-9.2,2.3-16.6,12.7-16.6,23.4v1.2h2.3v-1.2c0-9.6,6.7-19.1,14.9-21.2l114.7-28.7c4.1-1.1,9.5-1.6,15.5-1.6
		c5.9,0,11.3,0.6,15.5,1.6l114.7,28.7c8.2,2,14.9,11.5,14.9,21.2v1.2h2.3v-1.2C336.2,127,328.7,116.6,319.5,114.2z"/>
	<g>
		<defs>
			<rect id="SVGID_1_" x="99.8" y="166.1" width="139.5" height="72.8"/>
		</defs>
		<clipPath id="SVGID_00000087400963815345274660000017674147600352095109_">
			<use xlink:href="#SVGID_1_"  style="overflow:visible;"/>
		</clipPath>
		<g style="clip-path:url(#SVGID_00000087400963815345274660000017674147600352095109_);">
			<path class="st4" d="M239.3,239H100l-0.1-8.4c0,0,5.2-13.5,11-28.4c7.9-20.3,9.3-36.1,9.3-36.1h98.9c0,0,1.6,18.7,6.7,32.9
				c5.6,15.3,13.6,31.6,13.6,31.6L239.3,239"/>
		</g>
	</g>
	<g>
		<defs>
			<rect id="SVGID_00000069385815368674282220000008576664765576913317_" x="150" y="230" width="89.3" height="8.9"/>
		</defs>
		<clipPath id="SVGID_00000177463109324939491750000008839934667658870414_">
			<use xlink:href="#SVGID_00000069385815368674282220000008576664765576913317_"  style="overflow:visible;"/>
		</clipPath>
		<g style="clip-path:url(#SVGID_00000177463109324939491750000008839934667658870414_);">
			<path class="st6" d="M239.4,230.5h-88.8v8.4h88.7L239.4,230.5C239.4,230.6,239.4,230.6,239.4,230.5"/>
		</g>
	</g>
	<g>
		<defs>
			<rect id="SVGID_00000088834345392814483750000013621127034066705312_" x="99.8" y="166.1" width="28.2" height="72.8"/>
		</defs>
		<clipPath id="SVGID_00000092439469472583323540000013542298045191082400_">
			<use xlink:href="#SVGID_00000088834345392814483750000013621127034066705312_"  style="overflow:visible;"/>
		</clipPath>
		<g style="clip-path:url(#SVGID_00000092439469472583323540000013542298045191082400_);">
			<path class="st6" d="M118.6,202.2c8-20.3,9.3-36.1,9.3-36.1h-7.7c0,0-1.4,15.8-9.3,36.1c-5.8,14.8-11,28.4-11,28.4l0.1,8.4h7.7
				l-0.1-8.4C107.7,230.6,112.8,217.1,118.6,202.2"/>
		</g>
	</g>
	<g>
		<defs>
			<rect id="SVGID_00000091724306960426710170000016730122836636202683_" x="125" y="166.1" width="29" height="72.8"/>
		</defs>
		<clipPath id="SVGID_00000030481374234709489330000009887722151816668804_">
			<use xlink:href="#SVGID_00000091724306960426710170000016730122836636202683_"  style="overflow:visible;"/>
		</clipPath>
		<g style="clip-path:url(#SVGID_00000030481374234709489330000009887722151816668804_);">
			<path class="st6" d="M135,202.2c-8-20.3-9.3-36.1-9.3-36.1h7.8c0,0,1.4,15.8,9.3,36.1c5.8,14.8,11,28.4,11,28.4l-0.1,8.4h-7.7
				l0.1-8.4C146,230.6,140.8,217.1,135,202.2"/>
		</g>
	</g>
	<g>
		<defs>
			<rect id="SVGID_00000092424642172022868940000014260565971484811664_" x="111" y="192" width="32" height="46.9"/>
		</defs>
		<clipPath id="SVGID_00000120556378025144395410000008240060713101001356_">
			<use xlink:href="#SVGID_00000092424642172022868940000014260565971484811664_"  style="overflow:visible;"/>
		</clipPath>
		<g style="clip-path:url(#SVGID_00000120556378025144395410000008240060713101001356_);">
			<path class="st10" d="M126.9,192.8c0,0,3.3,16,5.9,24.3c2.6,8.3,9.7,21.9,9.7,21.9h-31.2c0,0,5.2-11.5,8.6-21.3
				C123.3,207.9,126.9,192.8,126.9,192.8"/>
		</g>
	</g>
	<path class="st11" d="M208.1,204.9l-33.2,0l-7-20.8l31.9,0.1L208.1,204.9"/>
	<g>
		<defs>
			<rect id="SVGID_00000014593979108058281870000010224288864250438837_" x="224" y="92" width="65" height="46"/>
		</defs>
		<clipPath id="SVGID_00000146492677866792698480000003145946749120902798_">
			<use xlink:href="#SVGID_00000014593979108058281870000010224288864250438837_"  style="overflow:visible;"/>
		</clipPath>
		<g style="clip-path:url(#SVGID_00000146492677866792698480000003145946749120902798_);">
			<g>
				<defs>
					
						<rect id="SVGID_00000021108385152722850920000005542699163425164454_" x="219" y="72.5" transform="matrix(0.2417 -0.9703 0.9703 0.2417 64.2817 341.2117)" width="63" height="114"/>
				</defs>
				<clipPath id="SVGID_00000011745100395524665390000011060755317867882167_">
					<use xlink:href="#SVGID_00000021108385152722850920000005542699163425164454_"  style="overflow:visible;"/>
				</clipPath>
				<g style="clip-path:url(#SVGID_00000011745100395524665390000011060755317867882167_);">
					<g>
						<defs>
							
								<rect id="SVGID_00000177476361904475564700000000842237587136530578_" x="219" y="72.5" transform="matrix(0.2417 -0.9703 0.9703 0.2417 64.2817 341.2117)" width="63" height="114"/>
						</defs>
						<clipPath id="SVGID_00000021118867157349603960000001699353384946137230_">
							<use xlink:href="#SVGID_00000177476361904475564700000000842237587136530578_"  style="overflow:visible;"/>
						</clipPath>
						<g style="clip-path:url(#SVGID_00000021118867157349603960000001699353384946137230_);">
							<path class="st15" d="M227,92.3c-0.6,1.5-1.2,3.1-1.6,4.7c-4.3,17.3,6.2,34.8,23.4,39.1c17.2,4.3,34.7-6.2,39-23.5
								c0.4-1.6,0.7-3.3,0.8-4.9L227,92.3"/>
						</g>
					</g>
				</g>
			</g>
		</g>
	</g>
	<g>
		<defs>
			<rect id="SVGID_00000106851691220387606770000002056108727331430589_" x="223" y="90" width="67" height="49"/>
		</defs>
		<clipPath id="SVGID_00000049938866226429238930000016645884650672244415_">
			<use xlink:href="#SVGID_00000106851691220387606770000002056108727331430589_"  style="overflow:visible;"/>
		</clipPath>
		<g style="clip-path:url(#SVGID_00000049938866226429238930000016645884650672244415_);">
			<g>
				<defs>
					
						<rect id="SVGID_00000110435687347685673860000013051750609201319357_" x="219" y="72.5" transform="matrix(0.2417 -0.9703 0.9703 0.2417 64.2817 341.2117)" width="63" height="114"/>
				</defs>
				<clipPath id="SVGID_00000078726274257443920750000003737387434453969852_">
					<use xlink:href="#SVGID_00000110435687347685673860000013051750609201319357_"  style="overflow:visible;"/>
				</clipPath>
				<g style="clip-path:url(#SVGID_00000078726274257443920750000003737387434453969852_);">
					<g>
						<defs>
							
								<rect id="SVGID_00000106147301656136781390000016632510064864772245_" x="219" y="72.5" transform="matrix(0.2417 -0.9703 0.9703 0.2417 64.2817 341.2117)" width="63" height="114"/>
						</defs>
						<clipPath id="SVGID_00000050664488100817390270000008532680313825903765_">
							<use xlink:href="#SVGID_00000106147301656136781390000016632510064864772245_"  style="overflow:visible;"/>
						</clipPath>
						<g style="clip-path:url(#SVGID_00000050664488100817390270000008532680313825903765_);">
							<path class="st2" d="M287.4,108.6l-59.8-14.9c-0.5,1.2-0.9,2.4-1.2,3.7c-4.2,16.7,6,33.6,22.6,37.7s33.5-6,37.6-22.7
								C287,111.1,287.3,109.9,287.4,108.6z M226.3,91l63.5,15.8l-0.1,1c-0.2,1.7-0.4,3.5-0.8,5.1c-4.5,17.9-22.6,28.8-40.4,24.4
								c-17.8-4.4-28.7-22.6-24.2-40.5c0.4-1.6,1-3.3,1.6-4.9L226.3,91"/>
						</g>
					</g>
				</g>
			</g>
		</g>
	</g>
	<g>
		<defs>
			<rect id="SVGID_00000067924795487146427440000003793038819610061195_" x="242" y="140" width="7" height="21"/>
		</defs>
		<clipPath id="SVGID_00000155114301753540021860000014865295271007760037_">
			<use xlink:href="#SVGID_00000067924795487146427440000003793038819610061195_"  style="overflow:visible;"/>
		</clipPath>
		<g style="clip-path:url(#SVGID_00000155114301753540021860000014865295271007760037_);">
			<g>
				<defs>
					
						<rect id="SVGID_00000147200268347880450220000015059020838703593905_" x="219" y="72.5" transform="matrix(0.2417 -0.9703 0.9703 0.2417 64.2817 341.2117)" width="63" height="114"/>
				</defs>
				<clipPath id="SVGID_00000116952894332635193650000009258847038800756395_">
					<use xlink:href="#SVGID_00000147200268347880450220000015059020838703593905_"  style="overflow:visible;"/>
				</clipPath>
				<g style="clip-path:url(#SVGID_00000116952894332635193650000009258847038800756395_);">
					<g>
						<defs>
							
								<rect id="SVGID_00000175319506761242870770000011585619933383175858_" x="219" y="72.5" transform="matrix(0.2417 -0.9703 0.9703 0.2417 64.2817 341.2117)" width="63" height="114"/>
						</defs>
						<clipPath id="SVGID_00000178884259461025427290000014730248354701715350_">
							<use xlink:href="#SVGID_00000175319506761242870770000011585619933383175858_"  style="overflow:visible;"/>
						</clipPath>
						<g style="clip-path:url(#SVGID_00000178884259461025427290000014730248354701715350_);">
							<path class="st2" d="M247.7,140.6c0.6,0.2,1,0.8,0.8,1.4l-4.3,17.2c-0.2,0.6-0.8,1-1.4,0.8c-0.6-0.2-1-0.8-0.8-1.4l4.3-17.2
								C246.5,140.9,247.1,140.5,247.7,140.6"/>
						</g>
					</g>
				</g>
			</g>
		</g>
	</g>
	<g>
		<defs>
			<rect id="SVGID_00000147180841783746998040000009364062811258389126_" x="201" y="90" width="20" height="7"/>
		</defs>
		<clipPath id="SVGID_00000129916986156946628880000016934622450182339243_">
			<use xlink:href="#SVGID_00000147180841783746998040000009364062811258389126_"  style="overflow:visible;"/>
		</clipPath>
		<g style="clip-path:url(#SVGID_00000129916986156946628880000016934622450182339243_);">
			<g>
				<defs>
					
						<rect id="SVGID_00000178197638953967861410000007193973687432488616_" x="219" y="72.5" transform="matrix(0.2417 -0.9703 0.9703 0.2417 64.2817 341.2117)" width="63" height="114"/>
				</defs>
				<clipPath id="SVGID_00000055699791817940694870000011581445431015657883_">
					<use xlink:href="#SVGID_00000178197638953967861410000007193973687432488616_"  style="overflow:visible;"/>
				</clipPath>
				<g style="clip-path:url(#SVGID_00000055699791817940694870000011581445431015657883_);">
					<g>
						<defs>
							
								<rect id="SVGID_00000133487971699424295280000010839189707162112402_" x="219" y="72.5" transform="matrix(0.2417 -0.9703 0.9703 0.2417 64.2817 341.2117)" width="63" height="114"/>
						</defs>
						<clipPath id="SVGID_00000075858735115563728360000011010120072597252263_">
							<use xlink:href="#SVGID_00000133487971699424295280000010839189707162112402_"  style="overflow:visible;"/>
						</clipPath>
						<g style="clip-path:url(#SVGID_00000075858735115563728360000011010120072597252263_);">
							<path class="st2" d="M202.9,90.3l17.1,4.3c0.6,0.1,1,0.8,0.8,1.4c-0.2,0.6-0.8,1-1.4,0.8l-17.1-4.3c-0.6-0.2-1-0.8-0.8-1.4
								C201.7,90.5,202.3,90.2,202.9,90.3"/>
						</g>
					</g>
				</g>
			</g>
		</g>
	</g>
	<g>
		<defs>
			<rect id="SVGID_00000170991191592709326920000005643786552557408403_" x="292" y="112" width="20" height="8"/>
		</defs>
		<clipPath id="SVGID_00000009550034357851897940000003763145275790289295_">
			<use xlink:href="#SVGID_00000170991191592709326920000005643786552557408403_"  style="overflow:visible;"/>
		</clipPath>
		<g style="clip-path:url(#SVGID_00000009550034357851897940000003763145275790289295_);">
			<g>
				<defs>
					
						<rect id="SVGID_00000060717645422373617040000001914345504183623070_" x="219" y="72.5" transform="matrix(0.2417 -0.9703 0.9703 0.2417 64.2817 341.2117)" width="63" height="114"/>
				</defs>
				<clipPath id="SVGID_00000034773521127665464470000008079977265957843866_">
					<use xlink:href="#SVGID_00000060717645422373617040000001914345504183623070_"  style="overflow:visible;"/>
				</clipPath>
				<g style="clip-path:url(#SVGID_00000034773521127665464470000008079977265957843866_);">
					<g>
						<defs>
							
								<rect id="SVGID_00000029757005620782035660000016504272865897531059_" x="219" y="72.5" transform="matrix(0.2417 -0.9703 0.9703 0.2417 64.2817 341.2117)" width="63" height="114"/>
						</defs>
						<clipPath id="SVGID_00000090280179259281198320000016317368068461667226_">
							<use xlink:href="#SVGID_00000029757005620782035660000016504272865897531059_"  style="overflow:visible;"/>
						</clipPath>
						<g style="clip-path:url(#SVGID_00000090280179259281198320000016317368068461667226_);">
							<path class="st2" d="M293.7,112.9l17.1,4.3c0.6,0.1,1,0.8,0.8,1.4c-0.2,0.6-0.8,1-1.4,0.8l-17.1-4.3c-0.6-0.2-1-0.8-0.8-1.4
								C292.5,113.1,293.1,112.8,293.7,112.9"/>
						</g>
					</g>
				</g>
			</g>
		</g>
	</g>
	<g>
		<defs>
			<rect id="SVGID_00000147939419566416640300000009606999247218380469_" x="207" y="123" width="19" height="12"/>
		</defs>
		<clipPath id="SVGID_00000086680830216508389980000001558280495249584003_">
			<use xlink:href="#SVGID_00000147939419566416640300000009606999247218380469_"  style="overflow:visible;"/>
		</clipPath>
		<g style="clip-path:url(#SVGID_00000086680830216508389980000001558280495249584003_);">
			<g>
				<defs>
					
						<rect id="SVGID_00000159472104132556337330000002795539693668592788_" x="219" y="72.5" transform="matrix(0.2417 -0.9703 0.9703 0.2417 64.2817 341.2117)" width="63" height="114"/>
				</defs>
				<clipPath id="SVGID_00000055692565782821660760000017535696827733588150_">
					<use xlink:href="#SVGID_00000159472104132556337330000002795539693668592788_"  style="overflow:visible;"/>
				</clipPath>
				<g style="clip-path:url(#SVGID_00000055692565782821660760000017535696827733588150_);">
					<g>
						<defs>
							
								<rect id="SVGID_00000026160412317702264520000012129461624691380650_" x="219" y="72.5" transform="matrix(0.2417 -0.9703 0.9703 0.2417 64.2817 341.2117)" width="63" height="114"/>
						</defs>
						<clipPath id="SVGID_00000080183357715099353570000001046515887170676137_">
							<use xlink:href="#SVGID_00000026160412317702264520000012129461624691380650_"  style="overflow:visible;"/>
						</clipPath>
						<g style="clip-path:url(#SVGID_00000080183357715099353570000001046515887170676137_);">
							<path class="st2" d="M224.4,123.4c0.3,0.1,0.5,0.2,0.7,0.5c0.3,0.5,0.1,1.2-0.4,1.6l-15.2,9.1c-0.5,0.3-1.2,0.2-1.6-0.4
								c-0.3-0.5-0.1-1.2,0.4-1.6l15.2-9.1C223.8,123.3,224.1,123.3,224.4,123.4"/>
						</g>
					</g>
				</g>
			</g>
		</g>
	</g>
	<g>
		<defs>
			<rect id="SVGID_00000073687348195239428220000016249972824199000746_" x="274" y="136" width="13" height="18"/>
		</defs>
		<clipPath id="SVGID_00000101807853759251755730000005053024454411733154_">
			<use xlink:href="#SVGID_00000073687348195239428220000016249972824199000746_"  style="overflow:visible;"/>
		</clipPath>
		<g style="clip-path:url(#SVGID_00000101807853759251755730000005053024454411733154_);">
			<g>
				<defs>
					
						<rect id="SVGID_00000051344515703235002030000017212793727603670679_" x="219" y="72.5" transform="matrix(0.2417 -0.9703 0.9703 0.2417 64.2817 341.2117)" width="63" height="114"/>
				</defs>
				<clipPath id="SVGID_00000139977547870139489740000014249664508150017205_">
					<use xlink:href="#SVGID_00000051344515703235002030000017212793727603670679_"  style="overflow:visible;"/>
				</clipPath>
				<g style="clip-path:url(#SVGID_00000139977547870139489740000014249664508150017205_);">
					<g>
						<defs>
							
								<rect id="SVGID_00000104664364472775100150000015570532513096407178_" x="219" y="72.5" transform="matrix(0.2417 -0.9703 0.9703 0.2417 64.2817 341.2117)" width="63" height="114"/>
						</defs>
						<clipPath id="SVGID_00000177476937427795078200000014500186085072104838_">
							<use xlink:href="#SVGID_00000104664364472775100150000015570532513096407178_"  style="overflow:visible;"/>
						</clipPath>
						<g style="clip-path:url(#SVGID_00000177476937427795078200000014500186085072104838_);">
							<path class="st2" d="M276.4,136.3c0.3,0.1,0.5,0.2,0.7,0.5l9.1,15.2c0.3,0.5,0.1,1.2-0.4,1.6c-0.5,0.3-1.2,0.2-1.6-0.4
								l-9.1-15.2c-0.3-0.5-0.1-1.2,0.4-1.6C275.8,136.3,276.1,136.2,276.4,136.3"/>
						</g>
					</g>
				</g>
			</g>
		</g>
	</g>
	<g>
		<defs>
			<rect id="SVGID_00000058584477852037846880000000888662083648858800_" x="200" y="109" width="21" height="6"/>
		</defs>
		<clipPath id="SVGID_00000173860197497326942060000009615321723112089225_">
			<use xlink:href="#SVGID_00000058584477852037846880000000888662083648858800_"  style="overflow:visible;"/>
		</clipPath>
		<g style="clip-path:url(#SVGID_00000173860197497326942060000009615321723112089225_);">
			<g>
				<defs>
					
						<rect id="SVGID_00000139992806241232764980000016124206255438179234_" x="219" y="72.5" transform="matrix(0.2417 -0.9703 0.9703 0.2417 64.2817 341.2117)" width="63" height="114"/>
				</defs>
				<clipPath id="SVGID_00000177465085411046878790000008437211865337439419_">
					<use xlink:href="#SVGID_00000139992806241232764980000016124206255438179234_"  style="overflow:visible;"/>
				</clipPath>
				<g style="clip-path:url(#SVGID_00000177465085411046878790000008437211865337439419_);">
					<g>
						<defs>
							
								<rect id="SVGID_00000025406884790732251120000017847449869556297112_" x="219" y="72.5" transform="matrix(0.2417 -0.9703 0.9703 0.2417 64.2817 341.2117)" width="63" height="114"/>
						</defs>
						<clipPath id="SVGID_00000157265782111853595280000009843501979977151678_">
							<use xlink:href="#SVGID_00000025406884790732251120000017847449869556297112_"  style="overflow:visible;"/>
						</clipPath>
						<g style="clip-path:url(#SVGID_00000157265782111853595280000009843501979977151678_);">
							<path class="st2" d="M219.4,109.7c0.4,0.1,0.8,0.5,0.8,0.9c0.1,0.6-0.3,1.2-0.9,1.3l-17.5,2.8c-0.6,0.1-1.2-0.3-1.3-0.9
								c-0.1-0.6,0.3-1.2,0.9-1.3l17.5-2.8C219.1,109.7,219.3,109.7,219.4,109.7"/>
						</g>
					</g>
				</g>
			</g>
		</g>
	</g>
	<g>
		<defs>
			<rect id="SVGID_00000007399848217902731990000004134703688090712704_" x="261" y="141" width="6" height="21"/>
		</defs>
		<clipPath id="SVGID_00000052795505136998802350000000540312654111013564_">
			<use xlink:href="#SVGID_00000007399848217902731990000004134703688090712704_"  style="overflow:visible;"/>
		</clipPath>
		<g style="clip-path:url(#SVGID_00000052795505136998802350000000540312654111013564_);">
			<g>
				<defs>
					
						<rect id="SVGID_00000008858403639790680710000001483985473999167641_" x="219" y="72.5" transform="matrix(0.2417 -0.9703 0.9703 0.2417 64.2817 341.2117)" width="63" height="114"/>
				</defs>
				<clipPath id="SVGID_00000065765238058714793210000001701350493296525471_">
					<use xlink:href="#SVGID_00000008858403639790680710000001483985473999167641_"  style="overflow:visible;"/>
				</clipPath>
				<g style="clip-path:url(#SVGID_00000065765238058714793210000001701350493296525471_);">
					<g>
						<defs>
							
								<rect id="SVGID_00000008841962896250267970000009053038165654775203_" x="219" y="72.5" transform="matrix(0.2417 -0.9703 0.9703 0.2417 64.2817 341.2117)" width="63" height="114"/>
						</defs>
						<clipPath id="SVGID_00000018220752425251196780000016967254772791736486_">
							<use xlink:href="#SVGID_00000008841962896250267970000009053038165654775203_"  style="overflow:visible;"/>
						</clipPath>
						<g style="clip-path:url(#SVGID_00000018220752425251196780000016967254772791736486_);">
							<path class="st2" d="M262.8,141.3c0.4,0.1,0.8,0.5,0.8,0.9l2.7,17.5c0.1,0.6-0.3,1.2-0.9,1.3c-0.6,0.1-1.2-0.3-1.3-0.9
								l-2.7-17.5c-0.1-0.6,0.3-1.2,0.9-1.3C262.5,141.3,262.6,141.3,262.8,141.3"/>
						</g>
					</g>
				</g>
			</g>
		</g>
	</g>
	<g>
		<defs>
			<rect id="SVGID_00000181077310327339785610000003763830672775160765_" x="286" y="125" width="17" height="14"/>
		</defs>
		<clipPath id="SVGID_00000041977076632965555140000004390285119760578987_">
			<use xlink:href="#SVGID_00000181077310327339785610000003763830672775160765_"  style="overflow:visible;"/>
		</clipPath>
		<g style="clip-path:url(#SVGID_00000041977076632965555140000004390285119760578987_);">
			<g>
				<defs>
					
						<rect id="SVGID_00000147181049129041403100000010760754728935296386_" x="219" y="72.5" transform="matrix(0.2417 -0.9703 0.9703 0.2417 64.2817 341.2117)" width="63" height="114"/>
				</defs>
				<clipPath id="SVGID_00000117667301070774212680000008213911770077321871_">
					<use xlink:href="#SVGID_00000147181049129041403100000010760754728935296386_"  style="overflow:visible;"/>
				</clipPath>
				<g style="clip-path:url(#SVGID_00000117667301070774212680000008213911770077321871_);">
					<g>
						<defs>
							
								<rect id="SVGID_00000108285481236075454210000017955122323811789452_" x="219" y="72.5" transform="matrix(0.2417 -0.9703 0.9703 0.2417 64.2817 341.2117)" width="63" height="114"/>
						</defs>
						<clipPath id="SVGID_00000070107159275571370880000003900492123907542666_">
							<use xlink:href="#SVGID_00000108285481236075454210000017955122323811789452_"  style="overflow:visible;"/>
						</clipPath>
						<g style="clip-path:url(#SVGID_00000070107159275571370880000003900492123907542666_);">
							<path class="st2" d="M287.6,126c0.1,0,0.3,0.1,0.4,0.2l14.3,10.4c0.5,0.4,0.6,1.1,0.3,1.6c-0.4,0.5-1.1,0.6-1.6,0.3
								L286.7,128c-0.5-0.4-0.6-1.1-0.3-1.6C286.7,126,287.2,125.8,287.6,126"/>
						</g>
					</g>
				</g>
			</g>
		</g>
	</g>
	<g>
		<defs>
			<rect id="SVGID_00000108304485890559395680000013511839239937188799_" x="222" y="134" width="14" height="18"/>
		</defs>
		<clipPath id="SVGID_00000091714289541721022520000004487005355701416878_">
			<use xlink:href="#SVGID_00000108304485890559395680000013511839239937188799_"  style="overflow:visible;"/>
		</clipPath>
		<g style="clip-path:url(#SVGID_00000091714289541721022520000004487005355701416878_);">
			<g>
				<defs>
					
						<rect id="SVGID_00000121969076777332776510000007744232845131098815_" x="219" y="72.5" transform="matrix(0.2417 -0.9703 0.9703 0.2417 64.2817 341.2117)" width="63" height="114"/>
				</defs>
				<clipPath id="SVGID_00000181079289229295317440000006189773190742072237_">
					<use xlink:href="#SVGID_00000121969076777332776510000007744232845131098815_"  style="overflow:visible;"/>
				</clipPath>
				<g style="clip-path:url(#SVGID_00000181079289229295317440000006189773190742072237_);">
					<g>
						<defs>
							
								<rect id="SVGID_00000040572058399355360710000003336612120587781264_" x="219" y="72.5" transform="matrix(0.2417 -0.9703 0.9703 0.2417 64.2817 341.2117)" width="63" height="114"/>
						</defs>
						<clipPath id="SVGID_00000047753818547122687960000005612448655563155848_">
							<use xlink:href="#SVGID_00000040572058399355360710000003336612120587781264_"  style="overflow:visible;"/>
						</clipPath>
						<g style="clip-path:url(#SVGID_00000047753818547122687960000005612448655563155848_);">
							<path class="st2" d="M234.7,134.6c0.1,0,0.3,0.1,0.4,0.2c0.5,0.4,0.6,1.1,0.3,1.6L225,150.7c-0.4,0.5-1.1,0.6-1.6,0.3
								c-0.5-0.4-0.6-1.1-0.3-1.6l10.3-14.4C233.8,134.7,234.2,134.5,234.7,134.6"/>
						</g>
					</g>
				</g>
			</g>
		</g>
	</g>
	<g>
		<defs>
			<rect id="SVGID_00000181802488010030365410000017264104734126903989_" x="253" y="142" width="3" height="13"/>
		</defs>
		<clipPath id="SVGID_00000027578489435816343520000000678914220262883480_">
			<use xlink:href="#SVGID_00000181802488010030365410000017264104734126903989_"  style="overflow:visible;"/>
		</clipPath>
		<g style="clip-path:url(#SVGID_00000027578489435816343520000000678914220262883480_);">
			<g>
				<defs>
					
						<rect id="SVGID_00000154401549483157398410000001858320766159579808_" x="219" y="72.5" transform="matrix(0.2417 -0.9703 0.9703 0.2417 64.2817 341.2117)" width="63" height="114"/>
				</defs>
				<clipPath id="SVGID_00000163069361844382423540000002128355614351210938_">
					<use xlink:href="#SVGID_00000154401549483157398410000001858320766159579808_"  style="overflow:visible;"/>
				</clipPath>
				<g style="clip-path:url(#SVGID_00000163069361844382423540000002128355614351210938_);">
					<g>
						<defs>
							
								<rect id="SVGID_00000094592176726256784270000009900493632714575511_" x="219" y="72.5" transform="matrix(0.2417 -0.9703 0.9703 0.2417 64.2817 341.2117)" width="63" height="114"/>
						</defs>
						<clipPath id="SVGID_00000179633685381472595670000002575142951193383090_">
							<use xlink:href="#SVGID_00000094592176726256784270000009900493632714575511_"  style="overflow:visible;"/>
						</clipPath>
						<g style="clip-path:url(#SVGID_00000179633685381472595670000002575142951193383090_);">
							<path class="st2" d="M255.1,142.9c0.5,0.1,0.9,0.6,0.9,1.2l-0.4,9.2c0,0.6-0.6,1.1-1.2,1.1c-0.6,0-1.1-0.6-1.1-1.2l0.4-9.2
								c0-0.6,0.6-1.1,1.2-1.1C254.9,142.8,255,142.8,255.1,142.9"/>
						</g>
					</g>
				</g>
			</g>
		</g>
	</g>
	<g>
		<defs>
			<rect id="SVGID_00000079449615746678535860000003407670943296052867_" x="207" y="101" width="12" height="4"/>
		</defs>
		<clipPath id="SVGID_00000039099285903400308080000000368863245284202666_">
			<use xlink:href="#SVGID_00000079449615746678535860000003407670943296052867_"  style="overflow:visible;"/>
		</clipPath>
		<g style="clip-path:url(#SVGID_00000039099285903400308080000000368863245284202666_);">
			<g>
				<defs>
					
						<rect id="SVGID_00000092424244581682925630000010287560547602496943_" x="219" y="72.5" transform="matrix(0.2417 -0.9703 0.9703 0.2417 64.2817 341.2117)" width="63" height="114"/>
				</defs>
				<clipPath id="SVGID_00000016055102832194334290000005257909593737301403_">
					<use xlink:href="#SVGID_00000092424244581682925630000010287560547602496943_"  style="overflow:visible;"/>
				</clipPath>
				<g style="clip-path:url(#SVGID_00000016055102832194334290000005257909593737301403_);">
					<g>
						<defs>
							
								<rect id="SVGID_00000146497191360133527140000000585327463506779789_" x="219" y="72.5" transform="matrix(0.2417 -0.9703 0.9703 0.2417 64.2817 341.2117)" width="63" height="114"/>
						</defs>
						<clipPath id="SVGID_00000043423001624952249470000009655606738702103706_">
							<use xlink:href="#SVGID_00000146497191360133527140000000585327463506779789_"  style="overflow:visible;"/>
						</clipPath>
						<g style="clip-path:url(#SVGID_00000043423001624952249470000009655606738702103706_);">
							<path class="st2" d="M217.9,102c0.5,0.1,0.9,0.6,0.9,1.2c0,0.6-0.6,1.1-1.2,1.1l-9.2-0.4c-0.6,0-1.1-0.6-1.1-1.2
								c0-0.6,0.6-1.1,1.2-1.1l9.2,0.4C217.7,101.9,217.8,101.9,217.9,102"/>
						</g>
					</g>
				</g>
			</g>
		</g>
	</g>
	<g>
		<defs>
			<rect id="SVGID_00000169548038426124502980000004708930195482102180_" x="219" y="130" width="10" height="9"/>
		</defs>
		<clipPath id="SVGID_00000085971629657283652420000005319876259785027758_">
			<use xlink:href="#SVGID_00000169548038426124502980000004708930195482102180_"  style="overflow:visible;"/>
		</clipPath>
		<g style="clip-path:url(#SVGID_00000085971629657283652420000005319876259785027758_);">
			<g>
				<defs>
					
						<rect id="SVGID_00000005976781352934060570000007062398022094944951_" x="219" y="72.5" transform="matrix(0.2417 -0.9703 0.9703 0.2417 64.2817 341.2117)" width="63" height="114"/>
				</defs>
				<clipPath id="SVGID_00000175297330380359238710000004948438869735384478_">
					<use xlink:href="#SVGID_00000005976781352934060570000007062398022094944951_"  style="overflow:visible;"/>
				</clipPath>
				<g style="clip-path:url(#SVGID_00000175297330380359238710000004948438869735384478_);">
					<g>
						<defs>
							
								<rect id="SVGID_00000019637593930840352460000002135233433578289551_" x="219" y="72.5" transform="matrix(0.2417 -0.9703 0.9703 0.2417 64.2817 341.2117)" width="63" height="114"/>
						</defs>
						<clipPath id="SVGID_00000112630751339920779530000002918067799700991409_">
							<use xlink:href="#SVGID_00000019637593930840352460000002135233433578289551_"  style="overflow:visible;"/>
						</clipPath>
						<g style="clip-path:url(#SVGID_00000112630751339920779530000002918067799700991409_);">
							<path class="st2" d="M228,130.2c0.2,0.1,0.4,0.2,0.6,0.3c0.4,0.5,0.4,1.2-0.1,1.6l-6.8,6.2c-0.5,0.4-1.2,0.4-1.6-0.1
								c-0.4-0.5-0.4-1.2,0.1-1.6l6.8-6.2C227.3,130.1,227.7,130.1,228,130.2"/>
						</g>
					</g>
				</g>
			</g>
		</g>
	</g>
	<g>
		<defs>
			<rect id="SVGID_00000098184477714865677960000002243677340057074610_" x="281" y="132" width="10" height="10"/>
		</defs>
		<clipPath id="SVGID_00000121251277302171791100000003756487675259960505_">
			<use xlink:href="#SVGID_00000098184477714865677960000002243677340057074610_"  style="overflow:visible;"/>
		</clipPath>
		<g style="clip-path:url(#SVGID_00000121251277302171791100000003756487675259960505_);">
			<g>
				<defs>
					
						<rect id="SVGID_00000067213286303477998690000010821183875999593904_" x="219" y="72.5" transform="matrix(0.2417 -0.9703 0.9703 0.2417 64.2817 341.2117)" width="63" height="114"/>
				</defs>
				<clipPath id="SVGID_00000097464334482900088930000016440716805899962279_">
					<use xlink:href="#SVGID_00000067213286303477998690000010821183875999593904_"  style="overflow:visible;"/>
				</clipPath>
				<g style="clip-path:url(#SVGID_00000097464334482900088930000016440716805899962279_);">
					<g>
						<defs>
							
								<rect id="SVGID_00000029726031947099971010000012078922358920676529_" x="219" y="72.5" transform="matrix(0.2417 -0.9703 0.9703 0.2417 64.2817 341.2117)" width="63" height="114"/>
						</defs>
						<clipPath id="SVGID_00000071525554601348575580000007268017853882124719_">
							<use xlink:href="#SVGID_00000029726031947099971010000012078922358920676529_"  style="overflow:visible;"/>
						</clipPath>
						<g style="clip-path:url(#SVGID_00000071525554601348575580000007268017853882124719_);">
							<path class="st2" d="M283.3,132.8c0.2,0.1,0.4,0.2,0.6,0.3l6.1,6.7c0.4,0.5,0.4,1.2-0.1,1.6c-0.5,0.4-1.2,0.4-1.6-0.1
								l-6.1-6.7c-0.4-0.5-0.4-1.2,0.1-1.6C282.5,132.8,282.9,132.7,283.3,132.8"/>
						</g>
					</g>
				</g>
			</g>
		</g>
	</g>
	<g>
		<defs>
			<rect id="SVGID_00000163784621809774750800000006851467283210689717_" x="210" y="117" width="12" height="6"/>
		</defs>
		<clipPath id="SVGID_00000054257002694452108710000003141747436745478314_">
			<use xlink:href="#SVGID_00000163784621809774750800000006851467283210689717_"  style="overflow:visible;"/>
		</clipPath>
		<g style="clip-path:url(#SVGID_00000054257002694452108710000003141747436745478314_);">
			<g>
				<defs>
					
						<rect id="SVGID_00000101067810241140061030000006164120040306811275_" x="219" y="72.5" transform="matrix(0.2417 -0.9703 0.9703 0.2417 64.2817 341.2117)" width="63" height="114"/>
				</defs>
				<clipPath id="SVGID_00000160896828724370015360000011710991628416981643_">
					<use xlink:href="#SVGID_00000101067810241140061030000006164120040306811275_"  style="overflow:visible;"/>
				</clipPath>
				<g style="clip-path:url(#SVGID_00000160896828724370015360000011710991628416981643_);">
					<g>
						<defs>
							
								<rect id="SVGID_00000075145756278404871810000013491645004958415519_" x="219" y="72.5" transform="matrix(0.2417 -0.9703 0.9703 0.2417 64.2817 341.2117)" width="63" height="114"/>
						</defs>
						<clipPath id="SVGID_00000047041721244744096760000012711353100491053471_">
							<use xlink:href="#SVGID_00000075145756278404871810000013491645004958415519_"  style="overflow:visible;"/>
						</clipPath>
						<g style="clip-path:url(#SVGID_00000047041721244744096760000012711353100491053471_);">
							<path class="st2" d="M220.4,117.3c0.3,0.1,0.7,0.3,0.8,0.7c0.2,0.6-0.1,1.2-0.7,1.5l-8.7,3.2c-0.6,0.2-1.2-0.1-1.5-0.7
								c-0.2-0.6,0.1-1.2,0.7-1.5l8.7-3.2C219.9,117.3,220.2,117.3,220.4,117.3"/>
						</g>
					</g>
				</g>
			</g>
		</g>
	</g>
	<g>
		<defs>
			<rect id="SVGID_00000152979896002138821050000006898310617036114056_" x="269" y="140" width="6" height="12"/>
		</defs>
		<clipPath id="SVGID_00000029753618964988692420000013577544011563499150_">
			<use xlink:href="#SVGID_00000152979896002138821050000006898310617036114056_"  style="overflow:visible;"/>
		</clipPath>
		<g style="clip-path:url(#SVGID_00000029753618964988692420000013577544011563499150_);">
			<g>
				<defs>
					
						<rect id="SVGID_00000136401246853276138980000010552022193448096445_" x="219" y="72.5" transform="matrix(0.2417 -0.9703 0.9703 0.2417 64.2817 341.2117)" width="63" height="114"/>
				</defs>
				<clipPath id="SVGID_00000080899977504677373000000004994094084082915476_">
					<use xlink:href="#SVGID_00000136401246853276138980000010552022193448096445_"  style="overflow:visible;"/>
				</clipPath>
				<g style="clip-path:url(#SVGID_00000080899977504677373000000004994094084082915476_);">
					<g>
						<defs>
							
								<rect id="SVGID_00000034771606118305835140000001184631429286138547_" x="219" y="72.5" transform="matrix(0.2417 -0.9703 0.9703 0.2417 64.2817 341.2117)" width="63" height="114"/>
						</defs>
						<clipPath id="SVGID_00000003080871118603163120000005443429186884634774_">
							<use xlink:href="#SVGID_00000034771606118305835140000001184631429286138547_"  style="overflow:visible;"/>
						</clipPath>
						<g style="clip-path:url(#SVGID_00000003080871118603163120000005443429186884634774_);">
							<path class="st2" d="M270.4,140.5c0.4,0.1,0.7,0.3,0.8,0.7l3.2,8.6c0.2,0.6-0.1,1.2-0.7,1.5c-0.6,0.2-1.2-0.1-1.5-0.7
								l-3.2-8.6c-0.2-0.6,0.1-1.2,0.7-1.5C270,140.4,270.2,140.4,270.4,140.5"/>
						</g>
					</g>
				</g>
			</g>
		</g>
	</g>
	<g>
		<defs>
			<rect id="SVGID_00000108287803708456148400000002896967848677326503_" x="291" y="119" width="11" height="7"/>
		</defs>
		<clipPath id="SVGID_00000013173086427495488400000012957537021610891137_">
			<use xlink:href="#SVGID_00000108287803708456148400000002896967848677326503_"  style="overflow:visible;"/>
		</clipPath>
		<g style="clip-path:url(#SVGID_00000013173086427495488400000012957537021610891137_);">
			<g>
				<defs>
					
						<rect id="SVGID_00000034047645622043760270000005832017747481570717_" x="219" y="72.5" transform="matrix(0.2417 -0.9703 0.9703 0.2417 64.2817 341.2117)" width="63" height="114"/>
				</defs>
				<clipPath id="SVGID_00000127725935094462945660000011126104611737829030_">
					<use xlink:href="#SVGID_00000034047645622043760270000005832017747481570717_"  style="overflow:visible;"/>
				</clipPath>
				<g style="clip-path:url(#SVGID_00000127725935094462945660000011126104611737829030_);">
					<g>
						<defs>
							
								<rect id="SVGID_00000011000138796148921250000011150359810105217186_" x="219" y="72.5" transform="matrix(0.2417 -0.9703 0.9703 0.2417 64.2817 341.2117)" width="63" height="114"/>
						</defs>
						<clipPath id="SVGID_00000169557444879444884530000004387708814955716234_">
							<use xlink:href="#SVGID_00000011000138796148921250000011150359810105217186_"  style="overflow:visible;"/>
						</clipPath>
						<g style="clip-path:url(#SVGID_00000169557444879444884530000004387708814955716234_);">
							<path class="st2" d="M292.7,120c0.1,0,0.1,0,0.2,0.1l8.1,3.7c0.6,0.3,0.8,0.9,0.6,1.5c-0.3,0.6-0.9,0.8-1.5,0.6l-8.1-3.7
								c-0.6-0.3-0.8-0.9-0.6-1.5C291.6,120.1,292.1,119.9,292.7,120"/>
						</g>
					</g>
				</g>
			</g>
		</g>
	</g>
	<g>
		<defs>
			<rect id="SVGID_00000065033125214952924520000015593107747849946301_" x="235" y="139" width="7" height="12"/>
		</defs>
		<clipPath id="SVGID_00000132078134320104146720000003374720195270036098_">
			<use xlink:href="#SVGID_00000065033125214952924520000015593107747849946301_"  style="overflow:visible;"/>
		</clipPath>
		<g style="clip-path:url(#SVGID_00000132078134320104146720000003374720195270036098_);">
			<g>
				<defs>
					
						<rect id="SVGID_00000083049974841920098000000000536811013957963191_" x="219" y="72.5" transform="matrix(0.2417 -0.9703 0.9703 0.2417 64.2817 341.2117)" width="63" height="114"/>
				</defs>
				<clipPath id="SVGID_00000002362700668119432650000003628476378421377187_">
					<use xlink:href="#SVGID_00000083049974841920098000000000536811013957963191_"  style="overflow:visible;"/>
				</clipPath>
				<g style="clip-path:url(#SVGID_00000002362700668119432650000003628476378421377187_);">
					<g>
						<defs>
							
								<rect id="SVGID_00000026131498084107518060000010950448775208624568_" x="219" y="72.5" transform="matrix(0.2417 -0.9703 0.9703 0.2417 64.2817 341.2117)" width="63" height="114"/>
						</defs>
						<clipPath id="SVGID_00000171680634333635988770000009506162003375743911_">
							<use xlink:href="#SVGID_00000026131498084107518060000010950448775208624568_"  style="overflow:visible;"/>
						</clipPath>
						<g style="clip-path:url(#SVGID_00000171680634333635988770000009506162003375743911_);">
							<path class="st2" d="M240.7,139.4c0.1,0,0.1,0,0.2,0.1c0.6,0.3,0.8,0.9,0.6,1.5l-3.8,8.4c-0.3,0.6-0.9,0.8-1.5,0.6
								c-0.6-0.3-0.8-0.9-0.6-1.5l3.8-8.4C239.6,139.5,240.2,139.3,240.7,139.4"/>
						</g>
					</g>
				</g>
			</g>
		</g>
	</g>
	<g>
		<defs>
			<rect id="SVGID_00000087383758037947909900000000341387155789637036_" x="265" y="114" width="17" height="16"/>
		</defs>
		<clipPath id="SVGID_00000142855283520863177300000004500328038915559869_">
			<use xlink:href="#SVGID_00000087383758037947909900000000341387155789637036_"  style="overflow:visible;"/>
		</clipPath>
		<g style="clip-path:url(#SVGID_00000142855283520863177300000004500328038915559869_);">
			<g>
				<defs>
					
						<rect id="SVGID_00000031893848373026079520000007593229214826216094_" x="219" y="72.5" transform="matrix(0.2417 -0.9703 0.9703 0.2417 64.2817 341.2117)" width="63" height="114"/>
				</defs>
				<clipPath id="SVGID_00000067957135622012941920000001335009641933037970_">
					<use xlink:href="#SVGID_00000031893848373026079520000007593229214826216094_"  style="overflow:visible;"/>
				</clipPath>
				<g style="clip-path:url(#SVGID_00000067957135622012941920000001335009641933037970_);">
					<g>
						<defs>
							
								<rect id="SVGID_00000168823205937165248990000006722095069937154228_" x="219" y="72.5" transform="matrix(0.2417 -0.9703 0.9703 0.2417 64.2817 341.2117)" width="63" height="114"/>
						</defs>
						<clipPath id="SVGID_00000013899205650759603830000010347287984801902777_">
							<use xlink:href="#SVGID_00000168823205937165248990000006722095069937154228_"  style="overflow:visible;"/>
						</clipPath>
						<g style="clip-path:url(#SVGID_00000013899205650759603830000010347287984801902777_);">
							<path class="st2" d="M280.6,114.2c0,0,0.1,0,0.1,0c0.6,0.2,0.9,0.9,0.7,1.5c-3.8,10.5-13.5,13.9-13.9,14.1
								c-0.6,0.2-1.2-0.1-1.4-0.7s0.1-1.2,0.7-1.4c0.1,0,9.1-3.3,12.5-12.7C279.5,114.4,280.1,114.1,280.6,114.2"/>
						</g>
					</g>
				</g>
			</g>
		</g>
	</g>
	<g>
		<defs>
			<rect id="SVGID_00000010290289926843607240000008385054728656384936_" x="280" y="106" width="4" height="8"/>
		</defs>
		<clipPath id="SVGID_00000065795126362750689550000010463835432444197800_">
			<use xlink:href="#SVGID_00000010290289926843607240000008385054728656384936_"  style="overflow:visible;"/>
		</clipPath>
		<g style="clip-path:url(#SVGID_00000065795126362750689550000010463835432444197800_);">
			<g>
				<defs>
					
						<rect id="SVGID_00000016076048468389946800000015765365150340710545_" x="219" y="72.5" transform="matrix(0.2417 -0.9703 0.9703 0.2417 64.2817 341.2117)" width="63" height="114"/>
				</defs>
				<clipPath id="SVGID_00000173842986825423610200000013946674742816470932_">
					<use xlink:href="#SVGID_00000016076048468389946800000015765365150340710545_"  style="overflow:visible;"/>
				</clipPath>
				<g style="clip-path:url(#SVGID_00000173842986825423610200000013946674742816470932_);">
					<g>
						<defs>
							
								<rect id="SVGID_00000073705758058822382620000009450094815802422685_" x="219" y="72.5" transform="matrix(0.2417 -0.9703 0.9703 0.2417 64.2817 341.2117)" width="63" height="114"/>
						</defs>
						<clipPath id="SVGID_00000165945392245239905550000001834688057867778439_">
							<use xlink:href="#SVGID_00000073705758058822382620000009450094815802422685_"  style="overflow:visible;"/>
						</clipPath>
						<g style="clip-path:url(#SVGID_00000165945392245239905550000001834688057867778439_);">
							<path class="st2" d="M282.6,106.3c0.4,0.1,0.8,0.5,0.9,1c0.1,1.3-0.6,4.3-0.7,4.9c-0.1,0.6-0.8,1-1.4,0.8
								c-0.6-0.1-1-0.8-0.8-1.4c0.3-1.3,0.7-3.4,0.7-4.1c-0.1-0.6,0.4-1.2,1-1.3C282.3,106.3,282.5,106.3,282.6,106.3"/>
						</g>
					</g>
				</g>
			</g>
		</g>
	</g>
	<g>
		<defs>
			<rect id="SVGID_00000020388783115393720090000017715313219618195888_" x="203" y="85" width="110" height="30"/>
		</defs>
		<clipPath id="SVGID_00000108310911225881113790000010065476617678528925_">
			<use xlink:href="#SVGID_00000020388783115393720090000017715313219618195888_"  style="overflow:visible;"/>
		</clipPath>
		<g style="clip-path:url(#SVGID_00000108310911225881113790000010065476617678528925_);">
			<g>
				<defs>
					
						<rect id="SVGID_00000165202385566005057440000008879015966881388946_" x="219" y="72.5" transform="matrix(0.2417 -0.9703 0.9703 0.2417 64.2817 341.2117)" width="63" height="114"/>
				</defs>
				<clipPath id="SVGID_00000182486375076922341200000003884998017415461269_">
					<use xlink:href="#SVGID_00000165202385566005057440000008879015966881388946_"  style="overflow:visible;"/>
				</clipPath>
				<g style="clip-path:url(#SVGID_00000182486375076922341200000003884998017415461269_);">
					<g>
						<defs>
							
								<rect id="SVGID_00000138546476789255642730000010162720987968227464_" x="219" y="72.5" transform="matrix(0.2417 -0.9703 0.9703 0.2417 64.2817 341.2117)" width="63" height="114"/>
						</defs>
						<clipPath id="SVGID_00000181765615385711428510000005905039248353773451_">
							<use xlink:href="#SVGID_00000138546476789255642730000010162720987968227464_"  style="overflow:visible;"/>
						</clipPath>
						<g style="clip-path:url(#SVGID_00000181765615385711428510000005905039248353773451_);">
							<path class="st2" d="M204.1,85.5l107.9,26.9l-0.5,2.2L203.6,87.7L204.1,85.5"/>
						</g>
					</g>
				</g>
			</g>
		</g>
	</g>
</g>
</svg>
